<?xml version="1.0" standalone="no"?>
<!DOCTYPE svg PUBLIC "-//W3C//DTD SVG 20010904//EN"
 "http://www.w3.org/TR/2001/REC-SVG-20010904/DTD/svg10.dtd">
<svg version="1.0" xmlns="http://www.w3.org/2000/svg"
 width="1125.000000pt" height="1125.000000pt" viewBox="0 0 1125.000000 1125.000000"
 preserveAspectRatio="xMidYMid meet">
<metadata>
Created by potrace 1.11, written by Peter Selinger 2001-2013
</metadata>
<g transform="translate(0.000000,1125.000000) scale(0.100000,-0.100000)"
fill="#000000" stroke="none">
<path d="M4486 9832 c-2 -1 -39 -5 -82 -7 -44 -2 -79 -5 -79 -5 0 -1 -13 -3
-30 -5 -16 -2 -55 -7 -85 -10 -30 -4 -68 -7 -85 -8 -16 -1 -32 -5 -35 -8 -3
-4 -23 -9 -45 -13 -22 -3 -51 -8 -65 -11 -14 -3 -41 -8 -60 -11 -19 -3 -38 -8
-42 -11 -5 -2 -17 -6 -28 -9 -98 -21 -186 -47 -199 -58 -8 -6 -16 -10 -18 -8
-6 5 -58 -11 -72 -22 -8 -6 -16 -10 -18 -8 -6 5 -53 -10 -53 -17 0 -4 -8 -7
-17 -8 -10 -1 -36 -10 -58 -19 -22 -10 -42 -18 -45 -19 -38 -11 -291 -136
-308 -152 -7 -7 -24 -16 -38 -19 -13 -3 -24 -10 -24 -15 0 -5 -7 -9 -15 -9 -8
0 -15 -4 -15 -10 0 -5 -5 -10 -10 -10 -9 0 -178 -107 -190 -120 -3 -3 -21 -17
-40 -30 -19 -13 -40 -31 -47 -40 -7 -8 -13 -12 -13 -7 0 4 -8 -1 -18 -10 -10
-10 -39 -35 -64 -56 -26 -22 -64 -54 -85 -73 -21 -19 -42 -34 -46 -34 -5 0 -5
-4 -2 -10 3 -5 2 -10 -3 -10 -17 0 -183 -177 -277 -296 -16 -20 -35 -42 -40
-48 -6 -6 -37 -51 -70 -101 -33 -49 -66 -96 -73 -103 -6 -7 -12 -20 -12 -28 0
-8 -5 -14 -11 -14 -5 0 -7 -4 -4 -10 3 -5 2 -10 -3 -10 -5 0 -32 -45 -60 -99
-28 -55 -54 -96 -57 -93 -4 4 -6 0 -4 -8 1 -8 -12 -45 -29 -82 -17 -37 -34
-79 -38 -93 -3 -14 -10 -28 -15 -31 -5 -3 -7 -10 -4 -15 4 -5 2 -9 -3 -9 -5 0
-9 -6 -10 -12 -3 -32 -29 -108 -34 -102 -4 3 -5 -2 -4 -12 2 -10 -3 -30 -11
-44 -7 -15 -14 -39 -15 -54 -1 -14 -6 -26 -11 -26 -4 0 -5 -5 -2 -10 4 -6 1
-18 -7 -27 -11 -14 -11 -16 2 -8 12 6 13 5 3 -6 -7 -7 -13 -23 -13 -35 0 -13
-4 -25 -9 -28 -4 -3 -7 -17 -6 -31 2 -14 0 -25 -4 -25 -4 0 -7 -10 -6 -22 1
-13 -2 -28 -7 -35 -6 -7 -5 -14 3 -18 7 -5 7 -10 1 -14 -10 -7 -22 -86 -25
-168 -1 -29 -4 -53 -7 -53 -7 0 -3 -362 4 -435 11 -110 18 -162 27 -197 5 -20
9 -40 8 -45 -1 -4 0 -11 1 -15 8 -26 24 -112 22 -120 -1 -5 3 -8 10 -8 6 0 9
-3 6 -6 -3 -3 1 -29 9 -57 8 -29 16 -59 18 -67 2 -8 4 -16 5 -17 2 -2 3 -6 4
-10 9 -34 31 -99 36 -103 3 -3 6 -12 8 -20 5 -27 85 -214 123 -285 21 -38 48
-90 61 -115 12 -25 26 -46 31 -48 4 -2 7 -10 7 -18 0 -8 3 -14 8 -14 4 0 13
-13 20 -28 6 -16 21 -38 32 -50 11 -12 20 -24 20 -28 0 -5 62 -91 103 -144
106 -134 212 -248 344 -370 97 -90 121 -109 127 -103 3 4 6 -1 6 -10 0 -10 6
-17 13 -17 10 0 35 -18 97 -72 9 -7 28 -19 43 -27 15 -8 27 -18 27 -21 0 -4
14 -13 30 -20 17 -7 30 -16 30 -21 0 -5 7 -9 15 -9 8 0 15 -4 15 -9 0 -5 8
-11 18 -15 9 -3 35 -17 57 -31 22 -14 51 -31 65 -38 14 -6 27 -14 30 -17 3 -4
46 -26 95 -51 50 -24 92 -47 93 -51 2 -5 11 -8 21 -8 9 0 26 -7 37 -15 12 -8
24 -11 28 -8 3 3 6 2 6 -3 0 -5 21 -16 48 -23 26 -8 49 -17 52 -21 3 -3 39
-17 80 -30 41 -14 78 -29 82 -35 4 -5 8 -7 8 -4 0 4 28 -2 63 -13 34 -11 70
-21 80 -24 35 -8 53 -13 85 -23 18 -5 35 -10 37 -10 3 -1 6 -1 8 -2 1 0 11 -2
22 -4 11 -2 31 -6 45 -9 30 -7 137 -27 165 -31 11 -2 40 -6 65 -10 138 -20
233 -26 445 -29 110 -2 205 1 212 6 7 6 14 5 18 -3 6 -8 10 -7 16 2 7 11 9 11
9 1 0 -7 4 -10 10 -7 5 3 36 8 67 11 58 5 79 7 163 19 25 4 61 8 80 10 19 2
35 4 35 5 0 2 13 4 60 13 17 4 48 11 69 16 22 5 42 9 45 9 15 -2 72 15 77 23
2 4 11 6 19 3 8 -3 20 -2 27 2 14 9 24 12 68 21 16 3 30 8 30 12 0 4 8 7 18 8
23 2 45 7 57 14 14 8 68 23 78 21 4 -1 7 2 7 7 0 5 16 12 35 15 19 4 35 11 35
17 0 6 3 8 8 5 4 -2 23 3 42 11 19 9 38 15 43 15 4 -1 7 3 7 8 0 5 3 9 8 8 13
-4 82 26 82 35 0 4 5 5 10 2 6 -3 10 -1 10 4 0 6 7 11 16 11 17 0 95 40 106
55 4 6 8 6 8 2 0 -5 13 1 29 12 16 12 34 21 40 21 6 0 11 5 11 11 0 5 4 8 9 5
5 -4 9 -669 9 -1603 l0 -1598 712 -2 c610 -1 711 1 706 13 -3 8 -2 14 2 14 4
0 7 106 7 235 0 150 -4 235 -10 235 -7 0 -7 3 0 8 6 4 10 96 10 239 0 149 -4
233 -10 233 -7 0 -7 3 0 8 6 4 10 95 10 237 0 142 -4 233 -10 237 -7 5 -7 8 0
8 7 0 10 295 10 866 0 476 4 868 8 871 5 3 16 -2 25 -10 9 -8 27 -18 40 -21
12 -4 22 -11 22 -16 0 -6 14 -13 48 -20 4 -1 14 -7 22 -14 8 -7 31 -19 50 -26
19 -8 38 -18 41 -22 3 -5 14 -10 25 -12 18 -4 119 -47 154 -65 9 -5 30 -12 48
-16 18 -3 32 -11 32 -16 0 -5 3 -8 8 -7 10 2 64 -12 87 -23 11 -6 30 -11 43
-12 12 0 22 -4 22 -8 0 -3 26 -12 58 -19 74 -18 71 -17 77 -20 3 -1 10 -4 15
-5 6 -1 11 -3 13 -5 1 -1 11 -3 22 -5 27 -4 62 -11 115 -25 25 -6 56 -11 69
-11 12 1 28 -2 34 -6 7 -4 25 -8 42 -9 16 -1 44 -5 60 -8 43 -9 121 -17 182
-19 29 -1 53 -6 53 -11 0 -5 6 -3 13 3 8 6 17 7 21 3 9 -8 426 -10 426 -2 0 3
16 5 35 4 33 -2 35 0 36 30 1 17 1 35 0 39 -1 5 -1 59 -1 120 0 62 0 234 0
382 -1 149 -1 277 -1 285 4 262 0 455 -8 463 -7 7 -11 7 -11 1 0 -5 -12 -10
-27 -11 -16 -1 -73 -4 -128 -7 -55 -4 -107 -7 -115 -6 -8 0 -24 0 -35 0 -27
-1 -31 -1 -95 4 -91 8 -245 30 -245 36 0 1 -8 3 -19 5 -46 9 -122 28 -131 34
-5 3 -18 7 -28 8 -10 2 -31 10 -48 18 -16 9 -29 13 -29 10 0 -3 -13 1 -30 10
-16 9 -30 12 -30 8 0 -5 -5 0 -11 9 -5 10 -16 15 -24 12 -8 -4 -15 -1 -15 6 0
6 -4 9 -9 6 -5 -3 -14 1 -21 9 -7 8 -16 13 -20 10 -5 -3 -12 -1 -15 5 -4 6
-24 18 -46 27 -21 8 -39 19 -39 23 0 4 -10 10 -22 14 -13 3 -36 18 -53 33 -16
15 -31 26 -33 24 -2 -1 -15 6 -28 18 -13 12 -26 21 -29 21 -14 0 -222 200
-270 260 -45 55 -115 158 -115 169 0 6 -3 11 -8 11 -4 0 -13 15 -21 33 -8 17
-17 34 -21 37 -3 3 -23 46 -43 95 -21 50 -44 103 -52 118 -10 19 -11 26 -2 21
9 -6 9 -4 0 8 -7 8 -10 18 -6 21 3 4 2 7 -4 7 -6 0 -10 6 -10 13 2 18 -13 89
-21 107 -4 8 -7 34 -7 57 0 22 -3 39 -7 37 -3 -2 -5 78 -3 178 5 222 7 258 19
258 5 0 7 2 4 5 -3 3 1 31 9 63 8 31 16 64 17 72 3 15 10 35 49 130 12 30 21
58 19 63 -1 4 3 7 8 7 5 0 9 3 8 8 -3 12 24 62 34 62 4 0 8 9 8 19 0 11 6 26
13 33 8 7 20 25 27 38 20 38 104 150 113 150 4 0 7 5 7 11 0 13 169 181 220
219 18 14 38 30 44 35 6 6 31 24 56 40 25 17 47 33 48 38 2 4 7 5 12 2 4 -3
13 2 20 10 7 8 19 15 26 15 8 0 14 5 14 11 0 5 5 7 10 4 6 -3 10 -1 10 4 0 6
7 11 15 11 8 0 15 4 15 10 0 5 3 9 8 8 4 -1 25 7 47 17 22 10 43 17 48 17 4
-1 7 3 7 8 0 6 8 10 18 10 10 0 23 5 30 12 7 7 12 9 12 5 0 -4 15 0 33 9 17
10 46 21 62 25 17 4 55 15 85 24 30 8 69 18 85 20 17 3 41 7 55 10 57 13 70
15 119 18 28 1 51 4 51 7 0 8 317 4 365 -5 46 -8 75 -8 82 -1 2 2 4 85 3 183
-1 98 -1 183 -1 188 0 6 0 98 0 205 0 107 1 213 2 235 1 22 1 45 1 50 0 6 -1
64 -1 130 0 66 0 129 -1 140 -2 27 -2 32 0 102 2 67 -4 87 -26 79 -7 -3 -16
-1 -20 5 -3 6 -11 6 -17 1 -11 -7 -33 -9 -39 -2 -9 8 -378 3 -378 -5 0 -5 -5
-3 -10 5 -5 8 -10 11 -10 5 0 -6 -36 -11 -82 -13 -45 -2 -87 -6 -92 -10 -6 -4
-32 -7 -58 -7 -27 0 -48 -3 -48 -6 0 -4 -16 -5 -35 -3 -19 1 -37 -1 -40 -7 -4
-5 -23 -9 -44 -9 -21 0 -41 -3 -45 -7 -4 -5 -16 -9 -27 -9 -10 -1 -21 -3 -24
-4 -3 -1 -14 -4 -25 -5 -11 -1 -22 -4 -25 -5 -6 -3 -4 -2 -60 -15 -22 -5 -42
-9 -45 -10 -3 -1 -25 -7 -50 -14 -25 -6 -52 -15 -60 -18 -8 -4 -19 -8 -25 -8
-5 -1 -17 -5 -25 -8 -8 -3 -51 -18 -95 -33 -44 -15 -84 -30 -90 -34 -5 -4 -28
-13 -50 -20 -22 -7 -75 -30 -117 -51 -43 -21 -78 -34 -78 -31 0 4 -4 3 -8 -3
-4 -5 -27 -20 -52 -33 -91 -47 -125 -67 -132 -77 -5 -7 -8 -7 -8 0 0 6 -4 5
-8 -2 -4 -6 -14 -13 -22 -15 -8 -2 -22 -10 -30 -18 -8 -8 -32 -23 -52 -34 -20
-10 -46 -27 -57 -37 -11 -11 -23 -19 -27 -19 -3 0 -23 -13 -44 -30 -21 -16
-41 -30 -44 -30 -3 0 -14 -8 -24 -17 -10 -10 -33 -29 -51 -43 -36 -27 -58 -46
-108 -90 -17 -16 -34 -26 -37 -23 -3 4 -6 -1 -6 -10 0 -9 -4 -17 -9 -17 -5 0
-51 -42 -102 -93 l-92 -94 -71 71 c-39 39 -70 74 -68 79 1 4 -3 7 -8 7 -6 0
-23 12 -40 28 -26 25 -76 68 -139 122 -13 11 -27 20 -30 20 -3 0 -24 16 -46
35 -59 52 -65 56 -65 51 0 -3 -12 6 -26 19 -15 14 -30 22 -34 20 -4 -3 -10 2
-14 10 -3 8 -12 15 -21 15 -8 0 -15 5 -15 10 0 6 -7 10 -15 10 -9 0 -18 7 -21
15 -4 8 -15 15 -25 15 -10 0 -19 4 -19 9 0 5 -20 19 -45 31 -25 12 -47 26 -51
31 -3 5 -10 7 -15 4 -5 -4 -9 -1 -9 4 0 6 -7 11 -15 11 -8 0 -15 5 -15 10 0 6
-5 10 -11 10 -7 0 -61 25 -121 54 -60 30 -112 56 -116 57 -8 2 -41 14 -79 31
-16 6 -32 12 -38 14 -5 2 -47 16 -92 33 -44 16 -84 27 -87 24 -3 -4 -6 -1 -6
6 0 7 -4 10 -9 6 -5 -3 -12 -1 -16 5 -3 5 -16 10 -29 10 -12 0 -26 3 -29 7 -4
3 -17 8 -29 9 -28 4 -48 9 -68 17 -8 3 -28 8 -45 11 -16 4 -39 8 -50 11 -51
12 -73 17 -105 22 -19 3 -41 10 -47 15 -9 7 -13 7 -13 -1 0 -7 -8 -8 -24 -1
-13 5 -27 6 -30 3 -3 -4 -6 -1 -6 7 0 10 -3 10 -14 1 -9 -8 -16 -9 -21 -2 -3
6 -19 9 -35 7 -16 -2 -32 -1 -35 3 -7 6 -46 11 -99 12 -16 0 -38 5 -49 11 -14
7 -17 7 -13 -1 4 -6 3 -11 -3 -11 -5 0 -13 5 -16 10 -4 7 -12 7 -24 0 -10 -5
-22 -6 -25 -2 -7 6 -344 11 -350 4z m389 -1316 c22 -3 40 -5 40 -6 0 -1 16 -3
35 -6 40 -5 74 -12 78 -14 1 -2 10 -3 20 -4 20 -3 100 -24 122 -33 8 -3 19 -5
23 -4 4 0 21 -6 37 -14 17 -9 30 -13 30 -10 0 4 6 3 13 -2 6 -4 14 -8 17 -9 9
-2 65 -25 94 -40 16 -8 35 -14 43 -14 8 0 11 -5 7 -12 -5 -7 -2 -9 9 -5 8 3
21 -1 27 -9 7 -8 18 -14 26 -14 7 0 20 -7 28 -16 9 -8 16 -13 16 -9 0 3 41
-23 91 -57 118 -81 129 -89 154 -113 123 -116 179 -174 213 -220 64 -85 92
-126 92 -135 0 -5 3 -10 8 -10 4 0 12 -10 18 -23 76 -150 97 -197 128 -285 19
-56 33 -102 30 -102 -3 0 -2 -6 3 -12 8 -13 12 -29 15 -60 1 -10 5 -18 9 -18
9 0 9 -440 1 -454 -3 -6 -7 -24 -8 -40 -2 -17 -5 -41 -8 -53 -3 -13 -8 -33
-11 -44 -2 -12 -9 -36 -15 -54 -6 -18 -12 -41 -14 -51 -6 -30 -89 -218 -99
-225 -5 -4 -6 -13 -2 -20 5 -8 5 -11 1 -7 -12 10 -34 -15 -28 -31 4 -10 1 -12
-8 -6 -10 6 -12 4 -7 -8 3 -8 0 -17 -6 -20 -7 -3 -21 -23 -32 -45 -11 -22 -23
-38 -27 -36 -5 3 -8 0 -8 -7 0 -25 -181 -218 -260 -278 -19 -14 -46 -36 -60
-48 -14 -13 -28 -23 -32 -23 -3 0 -13 -6 -20 -13 -33 -33 -281 -167 -308 -167
-6 0 -10 -5 -10 -11 0 -5 -5 -7 -10 -4 -6 4 -16 2 -23 -3 -16 -13 -136 -52
-159 -52 -10 0 -18 -4 -18 -8 0 -7 -9 -9 -65 -14 -14 -1 -25 -5 -25 -9 0 -3
-8 -6 -17 -6 -49 0 -74 -4 -70 -10 3 -5 -19 -8 -49 -8 -30 0 -54 -2 -54 -5 0
-3 -28 -5 -63 -5 -34 1 -70 -3 -79 -7 -10 -5 -18 -5 -18 0 0 4 -9 8 -20 8 -11
0 -20 -4 -20 -9 0 -4 -5 -5 -12 -1 -7 4 -48 9 -93 11 -44 1 -91 4 -105 7 -14
2 -50 7 -80 11 -30 4 -61 12 -67 17 -7 6 -13 8 -13 5 0 -3 -19 0 -42 5 -24 5
-54 12 -68 14 -13 3 -27 8 -30 12 -5 7 -12 9 -48 15 -9 2 -28 9 -42 17 -14 7
-27 13 -30 13 -3 0 -15 3 -28 8 -13 5 -28 9 -33 9 -5 0 -9 5 -9 12 0 6 -3 9
-6 6 -12 -13 -257 125 -319 180 -14 12 -28 22 -31 22 -30 0 -334 327 -334 360
0 6 -7 13 -15 16 -8 4 -12 10 -9 15 3 5 0 9 -5 9 -6 0 -11 5 -11 11 0 6 -9 22
-20 36 -11 14 -17 29 -14 34 3 5 0 9 -5 9 -6 0 -11 7 -11 15 0 8 -5 15 -10 15
-6 0 -9 3 -8 8 1 8 -5 25 -39 100 -13 29 -25 61 -27 70 -1 9 -8 30 -14 45 -13
30 -24 81 -26 110 0 9 -3 17 -6 17 -3 0 -6 10 -7 23 -1 12 -5 38 -9 57 -4 19
-7 50 -6 68 0 17 -4 32 -9 32 -6 0 -7 6 -3 12 8 12 7 31 0 101 -2 15 2 27 8
27 6 0 4 5 -4 10 -8 5 -10 10 -5 10 6 0 10 21 9 47 0 26 3 65 7 87 4 23 9 57
12 76 8 52 17 93 23 102 6 9 15 47 16 66 1 6 5 12 9 12 5 0 6 7 3 15 -4 8 -1
15 5 15 6 0 11 11 11 24 0 14 5 28 10 31 6 4 8 11 5 16 -4 5 -1 9 4 9 6 0 11
6 11 13 0 18 24 67 33 67 4 0 7 6 7 13 0 13 38 88 49 97 3 3 12 17 19 31 8 14
25 39 38 54 13 15 24 31 24 34 0 6 28 39 93 111 18 19 31 38 30 42 -2 4 6 10
17 13 11 4 20 13 20 21 0 8 4 13 9 11 4 -1 34 22 65 51 31 28 61 52 66 52 6 0
10 5 10 12 0 6 3 9 6 5 3 -3 17 6 30 20 13 14 24 23 24 19 0 -4 18 7 40 24 22
17 40 28 40 23 0 -4 4 -3 8 2 13 18 171 101 185 97 4 -1 7 3 7 9 0 6 7 9 15 5
8 -3 15 -1 15 4 0 6 9 10 21 10 11 0 17 5 14 10 -4 6 -3 10 2 9 16 -4 83 13
83 22 0 5 6 6 14 3 8 -3 17 -1 20 5 4 6 13 8 21 4 8 -3 15 0 15 6 0 6 5 11 11
11 5 0 7 -5 3 -11 -3 -6 6 -3 21 7 15 10 41 19 59 20 17 1 31 2 31 3 0 5 107
21 180 28 33 2 61 6 62 7 5 4 296 -3 338 -8z"/>
</g>
</svg>
